<?xml version="1.0" encoding="utf-8"?>
<svg version="1.1" id="Layer_1"
xmlns="http://www.w3.org/2000/svg"
xmlns:xlink="http://www.w3.org/1999/xlink"
width="110px" height="35px"
xml:space="preserve">
<g id="PathID_125" transform="matrix(0.128369, 0, 0, 0.128369, 42.1, 53)" opacity="1">
<path style="fill:#D38313;fill-opacity:1" d="M18.65 -38.3L11.95 -9.05L11.5 -7.1Q11.3 -5.9 11.3 -5.35Q11.3 -3.9 12 -3.35Q12.75 -2.85 14.4 -2.85Q15.05 -2.85 16.1 -3.1Q17.2 -3.35 17.65 -3.6L17.05 -1.3Q14.6 -0.3 13 0.2Q11.45 0.7 9.45 0.7Q6.45 0.7 4.7 -0.75Q3 -2.2 3 -4.45Q3 -5.4 3.15 -6.4L3.5 -8.3L8.9 -31.8L9.05 -32.55L9.1 -33.2Q9.1 -34.1 8.8 -34.6Q8.5 -35.15 7.9 -35.5Q7.3 -35.85 6.5 -35.95L4.75 -36.2L5.2 -38.05L18.35 -38.7L18.65 -38.3" />
</g>
<g id="PathID_126" transform="matrix(0.128369, 0, 0, 0.128369, 42.1, 53)" opacity="1">
</g>
<g id="PathID_127" transform="matrix(0.128369, 0, 0, 0.128369, 44.45, 53)" opacity="1">
<path style="fill:#D38313;fill-opacity:1" d="M13.65 0.85Q10.65 0.85 8.35 0.05Q6.1 -0.75 4.65 -2.2Q3.2 -3.65 2.45 -5.55Q1.75 -7.5 1.75 -9.85Q1.75 -12.8 2.85 -15.55Q3.95 -18.35 6.1 -20.6Q8.15 -22.7 11.3 -24.05Q14.45 -25.4 18.25 -25.4Q22.75 -25.4 25.1 -23.95Q27.45 -22.5 27.45 -19.65Q27.45 -16.95 25.4 -14.95Q23.4 -13 19.9 -12.05Q17.15 -11.25 15.2 -10.9Q13.3 -10.55 10.5 -10.25Q10.55 -9.1 10.8 -7.7Q11.05 -6.35 11.55 -5.4Q12.15 -4.25 13.25 -3.6Q14.35 -2.95 16.05 -2.95Q19 -2.95 21.05 -4.05Q23.1 -5.2 25 -7.7L26.85 -6.15Q24.55 -2.95 21.05 -1.05Q17.55 0.85 13.65 0.85M19.3 -18.95Q19.3 -21.1 18.5 -22.25Q17.75 -23.4 16.35 -23.4Q14.45 -23.4 12.7 -20.25Q11 -17.1 10.55 -12.3L13.45 -12.7Q14.9 -13 15.75 -13.4Q17.65 -14.2 18.45 -15.5Q19.3 -16.8 19.3 -18.95" />
</g>
<g id="PathID_128" transform="matrix(0.128369, 0, 0, 0.128369, 44.45, 53)" opacity="1">
</g>
<g id="PathID_129" transform="matrix(0.128369, 0, 0, 0.128369, 48.1, 53)" opacity="1">
<path style="fill:#D38313;fill-opacity:1" d="M19 -3.1L18.8 -3.1L17.15 -1.7Q16.35 -1.1 15.15 -0.5Q14.15 0.05 12.95 0.4Q11.8 0.75 10.4 0.75Q6.05 0.75 3.85 -1.8Q1.7 -4.35 1.7 -8.8Q1.7 -12.25 2.9 -15.25Q4.1 -18.25 6.15 -20.5Q8.25 -22.75 11 -24.05Q13.75 -25.4 16.85 -25.4Q19.05 -25.4 20.75 -24.85Q22.45 -24.3 23.5 -23.4L31.2 -25.05L31.55 -24.6L27.9 -9.25L27.45 -7.3Q27.25 -6.15 27.25 -5.55Q27.25 -4.1 27.9 -3.55Q28.55 -3.05 30.15 -3.05Q30.85 -3.05 31.8 -3.3L33.25 -3.8L32.7 -1.5Q30.2 -0.5 28.7 0Q27.2 0.5 25.25 0.5Q22.7 0.5 21.15 -0.5Q19.6 -1.5 19 -3.1M21.95 -19Q21.95 -19.55 21.8 -20.3Q21.65 -21.05 21.3 -21.55Q20.85 -22.2 20.1 -22.55Q19.4 -22.9 18.35 -22.9Q16.7 -22.9 15.3 -21.7Q13.95 -20.5 12.85 -18.55Q11.8 -16.6 11.2 -14Q10.65 -11.4 10.65 -8.7Q10.65 -7.5 10.8 -6.45Q11 -5.4 11.4 -4.65Q11.85 -3.9 12.6 -3.45Q13.4 -3.05 14.55 -3.05Q15.7 -3.05 16.75 -3.7Q17.85 -4.4 18.8 -5.4L21.95 -19" />
</g>
<g id="PathID_130" transform="matrix(0.128369, 0, 0, 0.128369, 48.1, 53)" opacity="1">
</g>
<g id="PathID_131" transform="matrix(0.128369, 0, 0, 0.128369, 52.4, 53)" opacity="1">
<path style="fill:#D38313;fill-opacity:1" d="M27.7 -20.2Q27.7 -19.05 27.35 -18Q27.05 -16.95 26.4 -16.2Q25.65 -15.35 24.85 -14.95Q24.05 -14.55 22.6 -14.55Q20.75 -14.55 19.65 -15.45Q18.6 -16.4 18.6 -17.55Q18.6 -18.6 18.9 -19.35L19.9 -21.75Q18.2 -21 16.95 -20Q15.75 -19 14.6 -17.7L10.7 0L2.45 0L5.85 -15.35L6.25 -17.15Q6.5 -18.3 6.5 -19.05Q6.5 -20.5 5.9 -21Q5.35 -21.55 3.8 -21.55Q3 -21.55 2.15 -21.25L0.75 -20.8L1.25 -23.05Q3.3 -23.9 5.15 -24.5Q7 -25.1 8.6 -25.1Q11.55 -25.1 13 -23.9Q14.5 -22.75 14.95 -20.65L15.15 -20.65Q17.6 -23.3 19.35 -24.35Q21.1 -25.4 23.05 -25.4Q25.2 -25.4 26.45 -24.05Q27.7 -22.7 27.7 -20.2" />
</g>
<g id="PathID_132" transform="matrix(0.128369, 0, 0, 0.128369, 52.4, 53)" opacity="1">
</g>
<g id="PathID_133" transform="matrix(0.128369, 0, 0, 0.128369, 55.9, 53)" opacity="1">
<path style="fill:#D38313;fill-opacity:1" d="M34.6 -3.85L34 -1.55Q31.55 -0.55 30.05 -0.05Q28.6 0.45 26.65 0.45Q23.65 0.45 22 -1Q20.35 -2.5 20.35 -4.7L20.4 -6.25Q20.45 -7.2 20.85 -8.6L22.65 -15.25L23.05 -17.2Q23.2 -18.05 23.2 -18.6Q23.2 -19.8 22.6 -20.5Q22.05 -21.2 20.65 -21.2Q19.8 -21.2 18.25 -20.5Q16.7 -19.85 14.75 -18.05L10.6 0L2.35 0L5.85 -15.35L6.25 -17.15Q6.5 -18.3 6.5 -19.05Q6.5 -20.45 5.9 -21Q5.35 -21.55 3.8 -21.55Q3 -21.55 2.15 -21.25L0.75 -20.8L1.25 -23.05Q3.3 -23.9 5.15 -24.5Q7 -25.1 8.65 -25.1Q11.6 -25.1 13.05 -23.9Q14.5 -22.75 15 -20.65L15.15 -20.65Q17.6 -22.9 20.2 -24.15Q22.85 -25.4 25.8 -25.4Q28.55 -25.4 30.1 -23.85Q31.7 -22.3 31.7 -20.15L31.6 -18.5Q31.5 -17.5 31.2 -16.3L29.25 -9.3Q29 -8.4 28.8 -7.25Q28.6 -6.15 28.6 -5.6Q28.6 -4.15 29.25 -3.6Q29.9 -3.1 31.5 -3.1Q32.25 -3.1 33.2 -3.35Q34.15 -3.6 34.6 -3.85" />
</g>
<g id="PathID_134" transform="matrix(0.128369, 0, 0, 0.128369, 55.9, 53)" opacity="1">
</g>
<g id="PathID_135" transform="matrix(0.128369, 0, 0, 0.128369, 60.45, 53)" opacity="1">
<path style="fill:#D38313;fill-opacity:1" d="M17.85 -3.6L17.3 -1.3Q14.8 -0.3 13.3 0.2Q11.85 0.7 9.9 0.7Q6.9 0.7 5.25 -0.75Q3.6 -2.2 3.6 -4.45L3.7 -6.25L4.1 -8.3L6.15 -15.6Q6.45 -16.65 6.6 -17.6Q6.8 -18.55 6.8 -19.3Q6.8 -20.7 6.2 -21.25Q5.65 -21.85 4.05 -21.85Q3.25 -21.85 2.4 -21.55L1 -21.1L1.5 -23.35Q3.55 -24.2 5.4 -24.8Q7.25 -25.4 8.9 -25.4Q11.85 -25.4 13.45 -23.95Q15.05 -22.5 15.05 -20.2L14.95 -18.5Q14.85 -17.3 14.55 -16.3L12.5 -9.05Q12.25 -8.15 12.05 -7Q11.85 -5.9 11.85 -5.35Q11.85 -3.9 12.5 -3.35Q13.15 -2.85 14.75 -2.85Q15.5 -2.85 16.45 -3.1Q17.4 -3.35 17.85 -3.6M18.4 -34.05Q18.4 -32.15 16.95 -30.8Q15.5 -29.5 13.45 -29.5Q11.45 -29.5 10 -30.8Q8.55 -32.15 8.55 -34.05Q8.55 -35.95 10 -37.3Q11.45 -38.7 13.45 -38.7Q15.5 -38.7 16.95 -37.3Q18.4 -35.95 18.4 -34.05" />
</g>
<g id="PathID_136" transform="matrix(0.128369, 0, 0, 0.128369, 60.45, 53)" opacity="1">
</g>
<g id="PathID_137" transform="matrix(0.128369, 0, 0, 0.128369, 62.85, 53)" opacity="1">
<path style="fill:#D38313;fill-opacity:1" d="M34.6 -3.85L34 -1.55Q31.55 -0.55 30.05 -0.05Q28.6 0.45 26.65 0.45Q23.65 0.45 22 -1Q20.35 -2.5 20.35 -4.7L20.4 -6.25Q20.45 -7.2 20.85 -8.6L22.65 -15.25L23.05 -17.2Q23.2 -18.05 23.2 -18.6Q23.2 -19.8 22.6 -20.5Q22.05 -21.2 20.65 -21.2Q19.8 -21.2 18.25 -20.5Q16.7 -19.85 14.75 -18.05L10.6 0L2.35 0L5.85 -15.35L6.25 -17.15Q6.5 -18.3 6.5 -19.05Q6.5 -20.45 5.9 -21Q5.35 -21.55 3.8 -21.55Q3 -21.55 2.15 -21.25L0.75 -20.8L1.25 -23.05Q3.3 -23.9 5.15 -24.5Q7 -25.1 8.65 -25.1Q11.6 -25.1 13.05 -23.9Q14.5 -22.75 15 -20.65L15.15 -20.65Q17.6 -22.9 20.2 -24.15Q22.85 -25.4 25.8 -25.4Q28.55 -25.4 30.1 -23.85Q31.7 -22.3 31.7 -20.15L31.6 -18.5Q31.5 -17.5 31.2 -16.3L29.25 -9.3Q29 -8.4 28.8 -7.25Q28.6 -6.15 28.6 -5.6Q28.6 -4.15 29.25 -3.6Q29.9 -3.1 31.5 -3.1Q32.25 -3.1 33.2 -3.35Q34.15 -3.6 34.6 -3.85" />
</g>
<g id="PathID_138" transform="matrix(0.128369, 0, 0, 0.128369, 62.85, 53)" opacity="1">
</g>
<g id="PathID_139" transform="matrix(0.128369, 0, 0, 0.128369, 67.35, 53)" opacity="1">
<path style="fill:#D38313;fill-opacity:1" d="M18.8 -2.6L18.6 -2.6L17.1 -1.5Q16.3 -0.95 15.35 -0.5Q14.2 0.05 13.2 0.3Q12.2 0.6 10.7 0.6Q6.35 0.6 4 -1.95Q1.7 -4.5 1.7 -8.95Q1.7 -12.35 2.85 -15.3Q4.05 -18.25 6.1 -20.55Q8.15 -22.75 10.9 -24.05Q13.65 -25.4 16.7 -25.4Q18.95 -25.4 20.65 -24.9Q22.4 -24.4 23.65 -23.4L31.25 -25L31.6 -24.6L27.4 -4.25Q26.4 0.3 24.6 3.25Q22.85 6.25 20.5 8Q18.1 9.75 15.5 10.4Q12.9 11.1 10 11.1Q6.95 11.1 5 10.65Q3.05 10.2 2.05 9.45Q1.05 8.75 0.7 7.9Q0.35 7.05 0.35 6.2Q0.35 4.8 1.35 3.65Q2.35 2.5 4.15 2.5Q5.5 2.5 6.55 3.2Q7.6 3.95 8.4 5Q9.15 5.9 9.75 7.1L10.7 9.05Q11.85 8.9 13 8.45Q14.15 8 15.2 6.75Q16.2 5.55 17.1 3.4Q18 1.3 18.8 -2.6M22.1 -18.95Q22.1 -19.6 21.95 -20.25Q21.8 -20.9 21.3 -21.5Q20.85 -22.15 20.15 -22.5Q19.45 -22.9 18.25 -22.9Q16.65 -22.9 15.25 -21.7Q13.9 -20.55 12.85 -18.6Q11.8 -16.65 11.2 -14.1Q10.65 -11.55 10.65 -8.8Q10.65 -7.6 10.85 -6.6Q11.05 -5.6 11.55 -4.8Q12.1 -4 12.9 -3.6Q13.75 -3.2 14.8 -3.2Q16.05 -3.2 17.3 -3.95Q18.6 -4.7 19.35 -5.55L22.1 -18.95" />
</g>
<g id="PathID_140" transform="matrix(0.128369, 0, 0, 0.128369, 67.35, 53)" opacity="1">
</g>
<g id="PathID_141" transform="matrix(0.128369, 0, 0, 0.128369, 73.3, 53)" opacity="1">
<path style="fill:#D38313;fill-opacity:1" d="M50.55 -3.85L49.95 -1.55Q47.5 -0.55 46 -0.05Q44.55 0.45 42.6 0.45Q39.6 0.45 37.95 -1Q36.3 -2.5 36.3 -4.7L36.35 -6.25Q36.4 -7.2 36.8 -8.6L38.6 -15.25L39 -17.2Q39.15 -18.05 39.15 -18.6Q39.15 -19.8 38.55 -20.5Q37.95 -21.2 36.6 -21.2Q35.65 -21.2 34.2 -20.3Q32.75 -19.45 31.25 -18.05L27.1 0L18.8 0L22.35 -15.25L22.75 -17.25Q22.9 -18.05 22.9 -18.6Q22.9 -19.8 22.3 -20.5Q21.7 -21.2 20.3 -21.2Q19.55 -21.2 18.15 -20.55Q16.8 -19.9 14.75 -18.05L10.6 0L2.35 0L5.85 -15.35L6.25 -17.2Q6.5 -18.35 6.5 -19.05Q6.5 -20.45 5.95 -21Q5.4 -21.55 3.8 -21.55Q3 -21.55 2.15 -21.25L0.75 -20.8L1.25 -23.05Q3.3 -23.9 5.15 -24.5Q7 -25.1 8.65 -25.1Q11.7 -25.1 13.05 -23.85Q14.4 -22.6 14.95 -20.65L15.1 -20.65Q17.6 -22.95 19.9 -24.15Q22.25 -25.4 25.25 -25.4Q27.85 -25.4 29.5 -24Q31.15 -22.6 31.3 -20.6L31.5 -20.6Q34.15 -22.9 36.45 -24.15Q38.75 -25.4 41.7 -25.4Q44.5 -25.4 46.05 -23.85Q47.65 -22.3 47.65 -20.15L47.55 -18.5Q47.45 -17.5 47.15 -16.3L45.25 -9.3Q45 -8.4 44.8 -7.25Q44.6 -6.15 44.6 -5.6Q44.6 -4.15 45.2 -3.6Q45.85 -3.1 47.45 -3.1Q48.2 -3.1 49.15 -3.35Q50.1 -3.6 50.55 -3.85" />
</g>
<g id="PathID_142" transform="matrix(0.128369, 0, 0, 0.128369, 73.3, 53)" opacity="1">
</g>
<g id="PathID_143" transform="matrix(0.128369, 0, 0, 0.128369, 79.85, 53)" opacity="1">
<path style="fill:#D38313;fill-opacity:1" d="M19 -3.1L18.8 -3.1L17.15 -1.7Q16.35 -1.1 15.15 -0.5Q14.15 0.05 12.95 0.4Q11.8 0.75 10.4 0.75Q6.05 0.75 3.85 -1.8Q1.7 -4.35 1.7 -8.8Q1.7 -12.25 2.9 -15.25Q4.1 -18.25 6.15 -20.5Q8.25 -22.75 11 -24.05Q13.75 -25.4 16.85 -25.4Q19.05 -25.4 20.75 -24.85Q22.45 -24.3 23.5 -23.4L31.2 -25.05L31.55 -24.6L27.9 -9.25L27.45 -7.3Q27.25 -6.15 27.25 -5.55Q27.25 -4.1 27.9 -3.55Q28.55 -3.05 30.15 -3.05Q30.85 -3.05 31.8 -3.3L33.25 -3.8L32.7 -1.5Q30.2 -0.5 28.7 0Q27.2 0.5 25.25 0.5Q22.7 0.5 21.15 -0.5Q19.6 -1.5 19 -3.1M21.95 -19Q21.95 -19.55 21.8 -20.3Q21.65 -21.05 21.3 -21.55Q20.85 -22.2 20.1 -22.55Q19.4 -22.9 18.35 -22.9Q16.7 -22.9 15.3 -21.7Q13.95 -20.5 12.85 -18.55Q11.8 -16.6 11.2 -14Q10.65 -11.4 10.65 -8.7Q10.65 -7.5 10.8 -6.45Q11 -5.4 11.4 -4.65Q11.85 -3.9 12.6 -3.45Q13.4 -3.05 14.55 -3.05Q15.7 -3.05 16.75 -3.7Q17.85 -4.4 18.8 -5.4L21.95 -19" />
</g>
<g id="PathID_144" transform="matrix(0.128369, 0, 0, 0.128369, 79.85, 53)" opacity="1">
</g>
<g id="PathID_145" transform="matrix(0.128369, 0, 0, 0.128369, 84.2, 53)" opacity="1">
<path style="fill:#D38313;fill-opacity:1" d="M19.1 -3.1L18.9 -3.1L17.25 -1.7Q16.45 -1.1 15.2 -0.5Q14.05 0.1 12.95 0.4Q11.85 0.75 10.4 0.75Q6.05 0.75 3.85 -1.8Q1.7 -4.35 1.7 -8.8Q1.7 -12.25 2.85 -15.25Q4.05 -18.25 6.1 -20.5Q8.1 -22.75 10.85 -24.05Q13.65 -25.4 16.7 -25.4Q19 -25.4 20.5 -24.9Q22.05 -24.4 23.1 -23.6L24.95 -31.7L25.05 -32.45L25.15 -33.15Q25.15 -33.95 24.7 -34.5Q24.3 -35.1 23.55 -35.45Q22.85 -35.75 21.95 -35.9L19.95 -36.2L20.4 -38.05L34.45 -38.7L34.75 -38.3L28.05 -9.2L27.6 -7.3Q27.4 -6.1 27.4 -5.5Q27.4 -4.1 28 -3.55Q28.65 -3.05 30.25 -3.05Q30.95 -3.05 31.95 -3.3Q32.95 -3.6 33.35 -3.8L32.75 -1.5Q30.3 -0.5 28.8 0Q27.35 0.5 25.4 0.5Q22.8 0.5 21.25 -0.5Q19.7 -1.5 19.1 -3.1M22.05 -19.15Q22.05 -19.75 21.9 -20.4Q21.75 -21.1 21.25 -21.7Q20.8 -22.3 20.1 -22.65Q19.4 -23.05 18.2 -23.05Q16.6 -23.05 15.2 -21.85Q13.85 -20.65 12.8 -18.6Q11.8 -16.7 11.2 -14.1Q10.65 -11.5 10.65 -8.7Q10.65 -7.5 10.8 -6.45Q11 -5.4 11.4 -4.65Q11.85 -3.9 12.6 -3.45Q13.35 -3.05 14.5 -3.05Q15.65 -3.05 16.8 -3.7Q17.95 -4.4 18.9 -5.4L22.05 -19.15" />
</g>
<g id="PathID_146" transform="matrix(0.128369, 0, 0, 0.128369, 84.2, 53)" opacity="1">
</g>
<g id="PathID_147" transform="matrix(0.128369, 0, 0, 0.128369, 88.5, 53)" opacity="1">
<path style="fill:#D38313;fill-opacity:1" d="M13.65 0.85Q10.65 0.85 8.35 0.05Q6.1 -0.75 4.65 -2.2Q3.2 -3.65 2.45 -5.55Q1.75 -7.5 1.75 -9.85Q1.75 -12.8 2.85 -15.55Q3.95 -18.35 6.1 -20.6Q8.15 -22.7 11.3 -24.05Q14.45 -25.4 18.25 -25.4Q22.75 -25.4 25.1 -23.95Q27.45 -22.5 27.45 -19.65Q27.45 -16.95 25.4 -14.95Q23.4 -13 19.9 -12.05Q17.15 -11.25 15.2 -10.9Q13.3 -10.55 10.5 -10.25Q10.55 -9.1 10.8 -7.7Q11.05 -6.35 11.55 -5.4Q12.15 -4.25 13.25 -3.6Q14.35 -2.95 16.05 -2.95Q19 -2.95 21.05 -4.05Q23.1 -5.2 25 -7.7L26.85 -6.15Q24.55 -2.95 21.05 -1.05Q17.55 0.85 13.65 0.85M19.3 -18.95Q19.3 -21.1 18.5 -22.25Q17.75 -23.4 16.35 -23.4Q14.45 -23.4 12.7 -20.25Q11 -17.1 10.55 -12.3L13.45 -12.7Q14.9 -13 15.75 -13.4Q17.65 -14.2 18.45 -15.5Q19.3 -16.8 19.3 -18.95" />
</g>
<g id="PathID_148" transform="matrix(0.128369, 0, 0, 0.128369, 88.5, 53)" opacity="1">
</g>
<g id="PathID_149" transform="matrix(0.128369, 0, 0, 0.128369, 93.85, 53)" opacity="1">
<path style="fill:#D38313;fill-opacity:1" d="M13.65 0.85Q10.65 0.85 8.35 0.05Q6.1 -0.75 4.65 -2.2Q3.2 -3.65 2.45 -5.55Q1.75 -7.5 1.75 -9.85Q1.75 -12.8 2.85 -15.55Q3.95 -18.35 6.1 -20.6Q8.15 -22.7 11.3 -24.05Q14.45 -25.4 18.25 -25.4Q22.75 -25.4 25.1 -23.95Q27.45 -22.5 27.45 -19.65Q27.45 -16.95 25.4 -14.95Q23.4 -13 19.9 -12.05Q17.15 -11.25 15.2 -10.9Q13.3 -10.55 10.5 -10.25Q10.55 -9.1 10.8 -7.7Q11.05 -6.35 11.55 -5.4Q12.15 -4.25 13.25 -3.6Q14.35 -2.95 16.05 -2.95Q19 -2.95 21.05 -4.05Q23.1 -5.2 25 -7.7L26.85 -6.15Q24.55 -2.95 21.05 -1.05Q17.55 0.85 13.65 0.85M19.3 -18.95Q19.3 -21.1 18.5 -22.25Q17.75 -23.4 16.35 -23.4Q14.45 -23.4 12.7 -20.25Q11 -17.1 10.55 -12.3L13.45 -12.7Q14.9 -13 15.75 -13.4Q17.65 -14.2 18.45 -15.5Q19.3 -16.8 19.3 -18.95" />
</g>
<g id="PathID_150" transform="matrix(0.128369, 0, 0, 0.128369, 93.85, 53)" opacity="1">
</g>
<g id="PathID_151" transform="matrix(0.128369, 0, 0, 0.128369, 97.5, 53)" opacity="1">
<path style="fill:#D38313;fill-opacity:1" d="M19 -3.1L18.8 -3.1L17.15 -1.7Q16.35 -1.1 15.15 -0.5Q14.15 0.05 12.95 0.4Q11.8 0.75 10.4 0.75Q6.05 0.75 3.85 -1.8Q1.7 -4.35 1.7 -8.8Q1.7 -12.25 2.9 -15.25Q4.1 -18.25 6.15 -20.5Q8.25 -22.75 11 -24.05Q13.75 -25.4 16.85 -25.4Q19.05 -25.4 20.75 -24.85Q22.45 -24.3 23.5 -23.4L31.2 -25.05L31.55 -24.6L27.9 -9.25L27.45 -7.3Q27.25 -6.15 27.25 -5.55Q27.25 -4.1 27.9 -3.55Q28.55 -3.05 30.15 -3.05Q30.85 -3.05 31.8 -3.3L33.25 -3.8L32.7 -1.5Q30.2 -0.5 28.7 0Q27.2 0.5 25.25 0.5Q22.7 0.5 21.15 -0.5Q19.6 -1.5 19 -3.1M21.95 -19Q21.95 -19.55 21.8 -20.3Q21.65 -21.05 21.3 -21.55Q20.85 -22.2 20.1 -22.55Q19.4 -22.9 18.35 -22.9Q16.7 -22.9 15.3 -21.7Q13.95 -20.5 12.85 -18.55Q11.8 -16.6 11.2 -14Q10.65 -11.4 10.65 -8.7Q10.65 -7.5 10.8 -6.45Q11 -5.4 11.4 -4.65Q11.85 -3.9 12.6 -3.45Q13.4 -3.05 14.55 -3.05Q15.7 -3.05 16.75 -3.7Q17.85 -4.4 18.8 -5.4L21.95 -19" />
</g>
<g id="PathID_152" transform="matrix(0.128369, 0, 0, 0.128369, 97.5, 53)" opacity="1">
</g>
<g id="PathID_153" transform="matrix(0.128369, 0, 0, 0.128369, 101.85, 53)" opacity="1">
<path style="fill:#D38313;fill-opacity:1" d="M10.9 0.85Q7.75 0.85 5.65 0.35Q3.6 -0.15 2.4 -0.95Q1.2 -1.75 0.75 -2.65Q0.3 -3.6 0.3 -4.4Q0.3 -5.85 1.35 -6.95Q2.45 -8.05 4.25 -8.05Q5.75 -8.05 6.75 -7.25Q7.8 -6.45 8.45 -5.3Q9.1 -4.2 9.5 -2.9L10.1 -1Q12.95 -1 14.4 -2.2Q15.85 -3.4 15.85 -5.5Q15.85 -6.45 15.4 -7.05Q14.95 -7.7 14.25 -8.15Q13.5 -8.6 12.35 -9L10.15 -9.85Q7.15 -10.85 5.4 -12.65Q3.65 -14.5 3.65 -17.2Q3.65 -18.8 4.35 -20.2Q5.1 -21.65 6.65 -22.85Q8.2 -24 10.55 -24.7Q12.95 -25.4 16.15 -25.4Q18.05 -25.4 19.65 -25.15Q21.3 -24.95 22.7 -24.35Q24 -23.75 24.75 -22.75Q25.5 -21.8 25.5 -20.45Q25.5 -19.05 24.45 -18.05Q23.4 -17.1 21.75 -17.1Q20.3 -17.1 19.35 -17.85Q18.4 -18.6 17.8 -19.6Q17.2 -20.65 16.85 -21.75L16.3 -23.65Q14.55 -23.55 13.1 -22.35Q11.7 -21.2 11.7 -19.45Q11.7 -18.4 12 -17.8Q12.35 -17.2 12.9 -16.8Q13.55 -16.35 14.55 -15.95L17 -15.1Q20.4 -13.9 22.1 -12.2Q23.85 -10.5 23.85 -7.75Q23.85 -5.95 23 -4.3Q22.15 -2.65 20.6 -1.55Q18.85 -0.35 16.6 0.25Q14.35 0.85 10.9 0.85" />
</g>
<g id="PathID_154" transform="matrix(0.128369, 0, 0, 0.128369, 101.85, 53)" opacity="1">
</g>
<g id="PathID_155" transform="matrix(0.128369, 0, 0, 0.128369, 105.2, 53)" opacity="1">
<path style="fill:#D38313;fill-opacity:1" d="M20 -3.95L19.8 -3.95Q17 -1.4 14.6 -0.4Q12.25 0.6 9.4 0.6Q6.65 0.6 5.1 -0.95Q3.6 -2.5 3.6 -4.65L3.65 -6.25Q3.75 -7.05 4.15 -8.5L6 -15.3Q6.2 -16 6.4 -17.2Q6.65 -18.45 6.65 -19Q6.65 -20.45 6.1 -21Q5.55 -21.55 3.9 -21.55Q3.1 -21.55 2.25 -21.25L0.85 -20.8L1.4 -23.05Q3.4 -23.9 5.25 -24.5Q7.15 -25.1 8.8 -25.1Q11.8 -25.1 13.4 -23.6Q15 -22.1 15 -19.9L14.9 -18.2Q14.8 -17 14.5 -16L12.7 -9.45Q12.45 -8.6 12.3 -7.6L12.15 -6.15Q12.15 -4.9 12.75 -4.25Q13.35 -3.6 14.65 -3.6Q15.75 -3.6 17.4 -4.45Q19.05 -5.3 20.45 -6.7L24.3 -24.65L32.25 -25.05L32.65 -24.6L28.25 -4.25Q27.2 0.3 25.4 3.25Q23.6 6.2 21.25 7.95Q18.95 9.65 16.3 10.35Q13.7 11.1 10.95 11.1Q8 11.1 6 10.65Q4.05 10.25 2.95 9.45Q1.95 8.75 1.6 7.9Q1.25 7.05 1.25 6.2Q1.25 4.75 2.25 3.6Q3.25 2.5 5.05 2.5Q6.4 2.5 7.45 3.2Q8.5 3.95 9.3 5Q10.05 5.95 10.65 7.15L11.6 9.05Q12.05 9 12.7 8.75Q13.4 8.55 13.85 8.25Q14.5 7.8 14.95 7.35Q15.45 6.95 16.1 6.1Q17.35 4.4 18.3 1.95Q19.3 -0.5 20 -3.95" />
</g>
<g id="PathID_156" transform="matrix(0.128369, 0, 0, 0.128369, 105.2, 53)" opacity="1">
</g>
<g id="PathID_157" transform="matrix(0.191164, 0, 0, 0.191164, 42.6, 8.25)" opacity="1">
<path style="fill:#145388;fill-opacity:1" d="M27.1 -35.75L27.1 -32L8.35 -32L8.35 -20L26.25 -20L26.25 -16.25L8.35 -16.25L8.35 -3.75L27.5 -3.75L27.5 0L3.75 0L3.75 -35.75L27.1 -35.75" />
</g>
<g id="PathID_158" transform="matrix(0.191164, 0, 0, 0.191164, 42.6, 8.25)" opacity="1">
</g>
<g id="PathID_159" transform="matrix(0.191164, 0, 0, 0.191164, 49.65, 8.25)" opacity="1">
<path style="fill:#145388;fill-opacity:1" d="M2.5 -8.15Q2.5 -16.25 13.15 -16.25Q17.05 -16.25 20 -15.75L20 -18.2Q20 -22.5 12.9 -22.5Q8.85 -22.5 4.6 -21.25L4.6 -25Q8.85 -26.25 12.9 -26.25Q24.6 -26.25 24.6 -17.85L24.6 0L22.25 0L20.4 -1.85Q17 0 12.35 0Q2.5 0 2.5 -8.15M13.15 -12.5Q7.1 -12.5 7.1 -8.25Q7.1 -3.75 12.35 -3.75Q17.15 -3.75 20 -5.8L20 -12Q17.25 -12.5 13.15 -12.5" />
</g>
<g id="PathID_160" transform="matrix(0.191164, 0, 0, 0.191164, 49.65, 8.25)" opacity="1">
</g>
<g id="PathID_161" transform="matrix(0.191164, 0, 0, 0.191164, 56.3, 8.25)" opacity="1">
<path style="fill:#145388;fill-opacity:1" d="M3.75 -1.25L3.75 -5.25Q8.1 -3.75 12.85 -3.75Q19.1 -3.75 19.1 -7.5Q19.1 -11 15 -11L10.75 -11Q2.5 -11 2.5 -18.75Q2.5 -26.25 13.4 -26.25Q18.1 -26.25 22.5 -25L22.5 -21Q18.1 -22.5 13.4 -22.5Q6.85 -22.5 6.85 -18.75Q6.85 -15.25 10.75 -15.25L15 -15.25Q23.75 -15.25 23.75 -7.5Q23.75 0 12.85 0Q8.1 0 3.75 -1.25" />
</g>
<g id="PathID_162" transform="matrix(0.191164, 0, 0, 0.191164, 56.3, 8.25)" opacity="1">
</g>
<g id="PathID_163" transform="matrix(0.191164, 0, 0, 0.191164, 62.55, 8.25)" opacity="1">
<path style="fill:#145388;fill-opacity:1" d="M0.6 -26.25L5.65 -26.25L13.05 -5.75L20.75 -26.25L25.65 -26.25L14.75 0.75Q11.85 7.9 6.05 9.7L4.25 6.4Q8.65 4.5 10.65 0.15L0.6 -26.25" />
</g>
<g id="PathID_164" transform="matrix(0.191164, 0, 0, 0.191164, 62.55, 8.25)" opacity="1">
</g>
<g id="PathID_165" transform="matrix(0.609575, 0, 0, 0.609575, 40.75, 33.8)" opacity="1">
<path style="fill:#155488;fill-opacity:1" d="M3.95 0L3.95 -36.35L11.35 -36.35L11.35 -6.2L29.75 -6.2L29.75 0L3.95 0" />
</g>
<g id="PathID_166" transform="matrix(0.609575, 0, 0, 0.609575, 40.75, 33.8)" opacity="1">
</g>
<g id="PathID_167" transform="matrix(0.609575, 0, 0, 0.609575, 58.7, 33.8)" opacity="1">
<path style="fill:#155488;fill-opacity:1" d="M3.65 0L3.65 -36.65L14.7 -36.65L21.35 -11.65L27.95 -36.65L39.05 -36.65L39.05 0L32.2 0L32.15 -28.85L24.9 0L17.75 0L10.5 -28.85L10.5 0L3.65 0" />
</g>
<g id="PathID_168" transform="matrix(0.609575, 0, 0, 0.609575, 58.7, 33.8)" opacity="1">
</g>
<g id="PathID_169" transform="matrix(0.609575, 0, 0, 0.609575, 83.6, 33.8)" opacity="1">
<path style="fill:#155488;fill-opacity:1" d="M1.8 -11.9L9 -12.6Q9.65 -8.95 11.6 -7.25Q13.6 -5.55 17 -5.55Q20.55 -5.55 22.35 -7.05Q24.2 -8.55 24.2 -10.6Q24.2 -11.9 23.4 -12.8Q22.65 -13.75 20.75 -14.4Q19.45 -14.85 14.85 -16Q8.95 -17.5 6.55 -19.65Q3.2 -22.65 3.2 -27.05Q3.2 -29.85 4.75 -32.25Q6.35 -34.7 9.3 -36Q12.3 -37.3 16.5 -37.3Q23.4 -37.3 26.85 -34.25Q30.35 -31.2 30.55 -26.15L23.15 -25.85Q22.65 -28.65 21.1 -29.9Q19.55 -31.15 16.45 -31.15Q13.25 -31.15 11.45 -29.8Q10.3 -28.95 10.3 -27.5Q10.3 -26.2 11.35 -25.3Q12.75 -24.1 18.1 -22.8Q23.5 -21.55 26.05 -20.2Q28.65 -18.85 30.1 -16.45Q31.6 -14.1 31.6 -10.6Q31.6 -7.45 29.85 -4.7Q28.1 -1.95 24.9 -0.6Q21.7 0.7 16.9 0.7Q9.95 0.7 6.2 -2.5Q2.5 -5.7 1.8 -11.9" />
</g>
<g id="PathID_170" transform="matrix(0.609575, 0, 0, 0.609575, 83.6, 33.8)" opacity="1">
</g>
<g id="PathID_171" transform="matrix(0.424813, 0.320201, -0.316452, 0.419839, 23.85, 10.6)" opacity="1">
<path style="fill:#010203;fill-opacity:0" d="M-0.05 -9.85L21.25 -1.15L-0.05 9.85L-21.2 -1.1L-0.05 -9.85" />
</g>
<g id="PathID_172" transform="matrix(0.424813, 0.320201, -0.316452, 0.419839, 23.85, 10.6)" opacity="1">
<path style="fill:none;stroke-width:4;stroke-linecap:round;stroke-linejoin:round;stroke-miterlimit:3;stroke:#059F87;stroke-opacity:1" d="M-0.1 -9.85L21.2 -1.1L0 9.8L-21.25 -1.1L-0.1 -9.85z" />
</g>
<g id="PathID_173" transform="matrix(0.419839, 0.316452, -0.316452, 0.419839, 10.2, 16.4)" opacity="1">
<path style="fill:#010203;fill-opacity:0" d="M10.7 -9.45L10.7 20.55L-10.65 8.55L-10.6 -20.5L10.7 -9.45" />
</g>
<g id="PathID_174" transform="matrix(0.419839, 0.316452, -0.316452, 0.419839, 10.2, 16.4)" opacity="1">
<path style="fill:none;stroke-width:4;stroke-linecap:round;stroke-linejoin:round;stroke-miterlimit:3;stroke:#D38313;stroke-opacity:1" d="M10.6 -9.4L10.6 20.6L-10.65 8.55L-10.65 -20.45L10.6 -9.4z" />
</g>
<g id="PathID_175" transform="matrix(0.419839, 0.316452, -0.316452, 0.419839, 21.7, 25.25)" opacity="1">
<path style="fill:#010203;fill-opacity:0" d="M10.7 8.5L-10.65 20.5L-10.65 -9.5L10.7 -20.5L10.7 8.5" />
</g>
<g id="PathID_176" transform="matrix(0.419839, 0.316452, -0.316452, 0.419839, 21.7, 25.25)" opacity="1">
<path style="fill:none;stroke-width:4;stroke-linecap:round;stroke-linejoin:round;stroke-miterlimit:3;stroke:#155488;stroke-opacity:1" d="M10.6 -20.5L-10.7 -9.5L-10.7 20.5L10.7 8.5L10.6 -20.5z" />
</g>
</svg>
